<svg xmlns:xlink="http://www.w3.org/1999/xlink" xmlns="http://www.w3.org/2000/svg" version="1.1" viewBox="0 0 28 32" height="32px" width="28px">
    <title>Icon</title>
    <g fill-rule="evenodd" fill="none" stroke-width="1" stroke="none" id="DELIVERY-PAGES">
        <g fill="#333333" transform="translate(-221.000000, -2373.000000)" id="Homepage-landing-v1-M-">
            <g transform="translate(167.000000, 2345.000000)" id="2.-Components/Tile/Navigation-Tile/Text-+-Icon-Tile">
                <g transform="translate(54.000000, 28.000067)" id="Icon">
                    <path id="Colour" d="M13.9999666,15.9999619 C18.4187183,15.9999619 21.9999475,12.4187326 21.9999475,7.99998093 C21.9999475,3.58122925 18.4187183,-3.55271368e-15 13.9999666,-3.55271368e-15 C9.58121495,-3.55271368e-15 5.99998569,3.58122925 5.99998569,7.99998093 C5.99998569,12.4187326 9.58121495,15.9999619 13.9999666,15.9999619 Z M13.9999666,13.9999666 C10.6937001,13.9999666 7.99998093,11.3062475 7.99998093,7.99998093 C7.99998093,4.6937144 10.6937001,1.99999523 13.9999666,1.99999523 C17.3062332,1.99999523 19.9999523,4.6937144 19.9999523,7.99998093 C19.9999523,11.3062475 17.3062332,13.9999666 13.9999666,13.9999666 Z M24.9999404,31.9999237 C26.6561864,31.9999237 27.9999332,30.6561769 27.9999332,28.9999309 L27.9999332,26.3999615 C27.9999332,21.7624603 24.23743,17.9999571 19.5999289,17.9999571 C17.806232,17.9999571 16.9436852,18.9999571 13.9999666,18.9999571 C11.0562481,18.9999571 10.1999879,17.9999571 8.40000439,17.9999571 C3.76250324,17.9999571 0,21.7624603 0,26.3999615 L0,28.9999309 C0,30.6561769 1.3437468,31.9999237 3,31.9999237 L24.9999404,31.9999237 Z M24.9999404,29.9999285 L2.99999523,29.9999285 C2.45000637,29.9999285 1.99999523,29.5499173 1.99999523,28.9999309 L1.99999523,26.3999615 C1.99999523,22.8687199 4.86876281,19.9999523 8.40000439,19.9999523 C9.62497705,19.9999523 10.8437241,20.9999523 13.9999666,20.9999523 C17.1499835,20.9999523 18.3749562,19.9999523 19.5999289,19.9999523 C23.1311704,19.9999523 25.999938,22.8687199 25.999938,26.3999615 L25.999938,28.9999309 C25.999938,29.5499173 25.5499269,29.9999285 24.9999404,29.9999285 Z"></path>
                </g>
            </g>
        </g>
    </g>
</svg>