<svg xmlns:xlink="http://www.w3.org/1999/xlink" xmlns="http://www.w3.org/2000/svg" version="1.1" viewBox="0 0 30 32" height="32px" width="30px">
    <title>Icon</title>
    <g fill-rule="evenodd" fill="none" stroke-width="1" stroke="none" id="Tile">
        <g fill="#333333" transform="translate(-53.000000, -28.000000)" id="2.-Components/Tile/Navigation-Tile/Text-+-Icon-Tile">
            <g transform="translate(53.079735, 28.500073)" id="Icon">
                <path id="Colour" d="M18.5067664,30.5822559 C19.1837057,30.422039 19.6620371,29.8174872 19.6620371,29.1218101 L19.6620371,26.7709246 C20.6108264,26.3721219 21.4999844,25.8560709 22.30821,25.2410211 L24.3433004,26.415884 C24.9445563,26.7629901 25.7060291,26.6526388 26.1831397,26.1481844 C27.8306578,24.4064894 29.0782134,22.2827762 29.7790784,19.9235289 C29.9758553,19.2610548 29.6872207,18.5502411 29.0887114,18.2047219 L27.0505693,17.0280279 C27.1142899,16.5233294 27.1471267,16.0091095 27.1471267,15.4873212 C27.1471267,14.9654718 27.1142899,14.4765204 27.0505693,13.9718219 L29.0887114,12.7951279 C29.6872207,12.4496697 29.9758553,11.7387949 29.7790784,11.0763209 C29.0782134,8.7170126 27.8306578,6.59336044 26.1831397,4.85166537 C25.7060291,4.34727205 24.9445563,4.23692075 24.3433004,4.58402685 L22.30821,5.75888977 C21.4999844,5.14383997 20.6108264,4.62772792 19.6620371,4.22892516 L19.6620371,1.87803965 C19.6620371,1.18242363 19.1837668,0.577810818 18.5067664,0.417593914 C16.1540499,-0.139167454 13.6868927,-0.139228489 11.3336878,0.417593914 C10.6567485,0.577810818 10.1784171,1.1823626 10.1784171,1.87803965 L10.1784171,4.22892516 C9.22962791,4.62772792 8.34046987,5.14383997 7.53224426,5.75888977 L5.49715389,4.58402685 C4.89583697,4.23692075 4.13436418,4.34727205 3.65731453,4.85166537 C2.00979649,6.59336044 0.762240867,8.71707364 0.0613758389,11.0763209 C-0.135401036,11.7387949 0.15323353,12.4496087 0.751742845,12.7951279 L2.78988496,13.9718219 C2.72616441,14.4765204 2.69332757,14.9907403 2.69332757,15.5125286 C2.69332757,16.034378 2.72616441,16.5233294 2.78988496,17.0280279 L0.751742845,18.2047219 C0.15323353,18.5501801 -0.135401036,19.2610548 0.0613758389,19.9235289 C0.762240867,22.2827762 2.00979649,24.4064894 3.65731453,26.1481844 C4.13442521,26.6525778 4.895898,26.7629291 5.49715389,26.415884 L7.53224426,25.2410211 C8.34046987,25.8560709 9.22956687,26.3721219 10.1784171,26.7709246 L10.1784171,29.1218101 C10.1784171,29.8174262 10.6566875,30.422039 11.3336878,30.5822559 C13.6864654,31.1390173 16.1535616,31.1390783 18.5067664,30.5822559 Z M14.9102784,29.0005336 C13.9675927,29.0005336 13.0671432,28.9041593 12.1784124,28.7208712 L12.1784124,25.3784109 C10.077099,24.635981 9.46876308,24.2912553 7.73848156,22.8122549 L4.84420135,24.4835155 C3.61233173,23.1029036 2.6761157,21.4841941 2.09860243,19.7361514 L4.99416437,18.0648907 C4.58577911,15.851334 4.58553497,15.1496145 4.99416437,12.9349591 L2.09860243,11.2636984 C2.6761157,9.51565572 3.61239276,7.89688516 4.84420135,6.51566287 L7.73848156,8.18814424 C9.44953705,6.72354812 10.0549433,6.37162025 12.1784124,5.62137789 L12.1784124,2.27897864 C13.0670821,2.09538532 13.9874291,1.99888897 14.9301758,1.99888897 C15.8728616,1.99888897 16.7733721,2.09538532 17.6620419,2.27897864 L17.6620419,5.62143893 C19.785633,6.37174232 20.3911003,6.72373122 22.1019727,8.18820527 L24.9962529,6.51572391 C26.2280615,7.89688516 27.1643386,9.51565572 27.7418518,11.2637595 L24.8462899,12.9350201 C25.2547362,15.1491262 25.2549193,15.8502964 24.8462899,18.0649517 L27.7418518,19.7362124 C27.1643386,21.4841941 26.2281225,23.1029646 24.9962529,24.4835155 L22.1019727,22.8122549 C20.4152091,24.254207 19.817005,24.6169991 17.6620419,25.3784109 L17.6620419,28.7208712 C16.7733111,28.9041593 15.8529642,29.0005336 14.9102784,29.0005336 Z M14.9202271,21.4999411 C18.2286299,21.4999411 20.9202128,18.8083582 20.9202128,15.4999554 C20.9202128,12.1915527 18.2286299,9.49996972 14.9202271,9.49996972 C11.6118244,9.49996972 8.92024144,12.1915527 8.92024144,15.4999554 C8.92024144,18.8083582 11.6118244,21.4999411 14.9202271,21.4999411 Z M14.9202367,19.4999459 C12.7146049,19.4999459 10.9202367,17.7055776 10.9202367,15.499965 C10.9202367,13.2943332 12.7146049,11.499965 14.9202367,11.499965 C17.1258493,11.499965 18.9202176,13.2943332 18.9202176,15.499965 C18.9202176,17.7055776 17.1258493,19.4999459 14.9202367,19.4999459 Z"></path>
            </g>
        </g>
    </g>
</svg>